<!DOCTYPE svg PUBLIC "-//W3C//DTD SVG 1.1//EN" "http://www.w3.org/Graphics/SVG/1.1/DTD/svg11.dtd">
<!-- Uploaded to: SVG Repo, www.svgrepo.com, Transformed by: SVG Repo Mixer Tools -->
<svg width="256px" height="256px" viewBox="0 0 64 64" enable-background="new 0 0 64 64" id="Layer_1" version="1.1" xml:space="preserve" xmlns="http://www.w3.org/2000/svg" xmlns:xlink="http://www.w3.org/1999/xlink" fill="#0000" stroke="#0000">
<g id="SVGRepo_bgCarrier" stroke-width="0"/>
<g id="SVGRepo_tracerCarrier" stroke-linecap="round" stroke-linejoin="round"/>
<g id="SVGRepo_iconCarrier"> <g> <g> <circle cx="32" cy="32" fill="#0000" r="30"/> </g> <g> <g> <polygon fill="#D8D8D7" points="47.2,52.6 20.3,52.6 23.1,10.7 43.5,10.7 "/> </g> <g> <polygon fill="#BFBEBE" points="20.3,52.6 16.2,50 21.4,15.6 21.8,10.7 23.1,10.7 "/> </g> <g> <polygon fill="#A0A09F" points="23.1,10.7 22.7,15.8 44,15.8 43.5,10.7 "/> </g> <g> <polygon fill="#A2A2A3" points="16.2,50 19,49.2 20.3,52.6 "/> </g> <g> <polygon fill="#280606" points="22.2,24.2 21.1,40.3 46.1,40.3 44.7,24.2 "/> </g> <g> <ellipse cx="33.8" cy="32.1" fill="#705542" rx="2.5" ry="4.1" transform="matrix(1.022796e-02 -0.9999 0.9999 1.022796e-02 1.3976 65.521)"/> </g> <g> <path d="M37.9,32.1c0,0-6.2-1.4-8.2-0.1c0,0,1.4-0.1,3.1,0.4C34.5,32.9,37.4,33.2,37.9,32.1z" fill="#280606"/> </g> <g opacity="0.25"> <polygon fill="#" points="22.7,15.8 47.2,52.6 44,15.8 "/> </g> </g> </g> </g>
</svg>