<!DOCTYPE svg PUBLIC "-//W3C//DTD SVG 1.1//EN" "http://www.w3.org/Graphics/SVG/1.1/DTD/svg11.dtd">
<!-- Uploaded to: SVG Repo, www.svgrepo.com, Transformed by: SVG Repo Mixer Tools -->
<svg fill="#280606" height="256px" width="256px" version="1.1" id="Layer_1" xmlns="http://www.w3.org/2000/svg" xmlns:xlink="http://www.w3.org/1999/xlink" viewBox="0 0 511.996 511.996" xml:space="preserve">
<g id="SVGRepo_bgCarrier" stroke-width="0"/>
<g id="SVGRepo_tracerCarrier" stroke-linecap="round" stroke-linejoin="round"/>
<g id="SVGRepo_iconCarrier"> <g> <g> <path d="M474.543,192.655c-2.023-7.194-8.247-12.027-15.481-12.027h-52.976l2.881-30.986c0.387-4.17-0.999-8.311-3.82-11.408 c-2.821-3.095-6.816-4.86-11.004-4.86H58.536c-4.182,0-8.171,1.76-10.992,4.846c-2.821,3.086-4.213,7.219-3.837,11.384 l6.003,66.312v0.001l3.264,36.051c0.99,10.934,2.662,21.756,4.919,32.43c0.083,0.529,0.194,1.047,0.331,1.554 c8.257,37.98,24.381,73.949,47.536,105.482l24.157,32.901H80.508c-24.168,0-43.83,19.663-43.83,43.83 c0,24.167,19.663,43.83,43.83,43.83h291.66c24.168,0,43.83-19.662,43.83-43.83c0-24.168-19.663-43.83-43.83-43.83h-49.494 l24.386-33.383c12.32-16.866,22.614-35.01,30.807-54.036c18.823-2.449,33.17-6.622,42.703-12.451 c10.656-6.514,23.216-28.166,37.33-64.354c5.218-13.38,9.822-26.863,12.965-37.966 C475.849,204.536,475.939,197.621,474.543,192.655z M372.168,454.117c7.749-0.002,14.053,6.304,14.053,14.053 c0,7.749-6.304,14.053-14.053,14.053H80.508c-7.749,0-14.053-6.304-14.053-14.053c0-7.749,6.304-14.053,14.053-14.053H372.168z M369.733,249.957c-2.075,22.319-7.161,44.161-15.034,64.945c-1.13,1.694-1.906,3.628-2.265,5.693 c-7.595,18.649-17.439,36.399-29.418,52.797l-36.617,50.126H166.255l-36.495-49.704c-17.119-23.315-29.932-49.348-38.027-76.862 h157.46c8.223,0,14.888-6.666,14.888-14.888s-6.666-14.888-14.888-14.888H84.924c-0.974-5.923-1.751-11.887-2.294-17.89 l-1.794-19.821h290.802L369.733,249.957z M377.804,163.154l-2.867,30.835c0,0.005,0,0.007-0.001,0.012l-0.529,5.686H78.141 l-3.308-36.535h302.971V163.154z M429.544,250.863c-11.821,29.994-21.369,45.46-24.728,48.337 c-3.401,2.019-8.707,3.872-15.347,5.431c4.916-16.891,8.272-34.266,9.913-51.919l3.417-36.757l0.517-5.549h39.91 C440.679,220.004,436.064,234.321,429.544,250.863z"/> </g> </g> <g> <g> <path d="M308.449,279.153c-0.179-0.953-0.476-1.891-0.849-2.784s-0.834-1.757-1.37-2.561c-0.536-0.819-1.161-1.578-1.846-2.263 c-0.685-0.7-1.444-1.31-2.263-1.861c-0.804-0.536-1.668-0.997-2.576-1.37c-0.893-0.372-1.831-0.655-2.784-0.849 c-1.921-0.387-3.886-0.387-5.806,0c-0.953,0.194-1.891,0.476-2.799,0.849c-0.893,0.372-1.757,0.834-2.561,1.37 c-0.819,0.551-1.578,1.161-2.263,1.861c-0.685,0.685-1.31,1.444-1.846,2.263c-0.536,0.804-0.998,1.668-1.37,2.561 s-0.67,1.831-0.849,2.784c-0.194,0.968-0.298,1.935-0.298,2.918c0,0.968,0.104,1.95,0.298,2.903 c0.179,0.953,0.476,1.891,0.849,2.784s0.834,1.772,1.37,2.576c0.536,0.804,1.161,1.578,1.846,2.263s1.444,1.31,2.263,1.846 c0.804,0.536,1.667,0.998,2.561,1.37c0.908,0.372,1.846,0.655,2.799,0.849c0.953,0.194,1.935,0.298,2.903,0.298 c0.968,0,1.95-0.104,2.903-0.298c0.953-0.194,1.891-0.476,2.784-0.849c0.908-0.372,1.772-0.834,2.576-1.37 c0.819-0.536,1.578-1.161,2.263-1.846s1.31-1.459,1.846-2.263c0.536-0.804,0.998-1.682,1.37-2.576 c0.372-0.893,0.67-1.831,0.849-2.784c0.194-0.968,0.298-1.936,0.298-2.903C308.747,281.088,308.642,280.121,308.449,279.153z"/> </g> </g> <g> <g> <path d="M234.273,7.254c-4.218-7.06-13.361-9.36-20.417-5.145c-7.059,4.218-9.362,13.359-5.145,20.417 c11.092,18.563,10.949,39.768-0.39,58.181c-4.312,7.002-2.132,16.173,4.87,20.485c2.434,1.499,5.131,2.214,7.794,2.214 c4.997,0,9.878-2.516,12.691-7.082C250.78,68.551,251.003,35.253,234.273,7.254z"/> </g> </g> <g> <g> <path d="M294.269,30.875c-4.218-7.059-13.361-9.362-20.417-5.145c-7.059,4.218-9.362,13.359-5.145,20.417 c7.298,12.214,7.205,26.166-0.256,38.28c-4.313,7.004-2.132,16.175,4.868,20.487c2.434,1.499,5.131,2.214,7.794,2.214 c4.997,0,9.878-2.516,12.691-7.082C307.087,78.476,307.261,52.619,294.269,30.875z"/> </g> </g> <g> <g> <path d="M175.873,30.875c-4.218-7.059-13.361-9.362-20.417-5.145c-7.059,4.218-9.362,13.359-5.145,20.417 c7.298,12.214,7.205,26.166-0.256,38.28c-4.313,7.004-2.134,16.175,4.869,20.487c2.434,1.499,5.131,2.214,7.794,2.214 c4.997,0,9.878-2.516,12.691-7.082C188.691,78.476,188.865,52.619,175.873,30.875z"/> </g> </g> </g>
</svg>